<svg width="24" height="24" viewBox="0 0 24 24" fill="none" xmlns="http://www.w3.org/2000/svg">
<path fill-rule="evenodd" clip-rule="evenodd" d="M6.80742 3.27707C10.1478 2.90764 13.5189 2.90764 16.8593 3.27707C18.6842 3.48046 20.1555 4.91473 20.3698 6.74331C20.7656 10.1248 20.7656 13.5408 20.3698 16.9223C20.1555 18.7509 18.6842 20.1852 16.8603 20.3895C13.5195 20.759 10.1481 20.759 6.80742 20.3895C4.98252 20.1852 3.51126 18.7509 3.29696 16.9233C2.90101 13.5415 2.90101 10.1251 3.29696 6.74331C3.51126 4.91473 4.98252 3.48046 6.80742 3.27707ZM16.6383 6.07654C16.3834 6.07654 16.139 6.17762 15.9588 6.35754C15.7785 6.53746 15.6773 6.78148 15.6773 7.03592C15.6773 7.29037 15.7785 7.53439 15.9588 7.71431C16.139 7.89423 16.3834 7.99531 16.6383 7.99531C16.8931 7.99531 17.1376 7.89423 17.3178 7.71431C17.498 7.53439 17.5993 7.29037 17.5993 7.03592C17.5993 6.78148 17.498 6.53746 17.3178 6.35754C17.1376 6.17762 16.8931 6.07654 16.6383 6.07654ZM7.2687 11.8328C7.2687 10.6242 7.74961 9.46512 8.60566 8.6105C9.4617 7.75589 10.6227 7.27577 11.8334 7.27577C13.044 7.27577 14.205 7.75589 15.0611 8.6105C15.9171 9.46512 16.398 10.6242 16.398 11.8328C16.398 13.0414 15.9171 14.2005 15.0611 15.0552C14.205 15.9098 13.044 16.3899 11.8334 16.3899C10.6227 16.3899 9.4617 15.9098 8.60566 15.0552C7.74961 14.2005 7.2687 13.0414 7.2687 11.8328Z" fill="white"/>
</svg>
