<svg width="200" height="30" viewBox="0 0 200 30" fill="none" xmlns="http://www.w3.org/2000/svg">
<path d="M16.05 2.25C15.97 3.13 15.91 3.98 15.87 4.8C15.85 5.62 15.84 6.25 15.84 6.69C15.84 7.09 15.85 7.47 15.87 7.83C15.89 8.19 15.91 8.49 15.93 8.73H15.24C15.04 7.27 14.73 6.12 14.31 5.28C13.89 4.42 13.34 3.82 12.66 3.48C12 3.12 11.22 2.94 10.32 2.94H9.09C8.51 2.94 8.07 2.99 7.77 3.09C7.47 3.19 7.27 3.39 7.17 3.69C7.07 3.99 7.02 4.45 7.02 5.07V20.67C7.02 21.29 7.07 21.75 7.17 22.05C7.27 22.35 7.47 22.55 7.77 22.65C8.07 22.75 8.51 22.8 9.09 22.8H10.56C11.46 22.8 12.25 22.61 12.93 22.23C13.63 21.83 14.22 21.16 14.7 20.22C15.2 19.28 15.58 18.01 15.84 16.41H16.53C16.47 17.05 16.44 17.89 16.44 18.93C16.44 19.39 16.45 20.04 16.47 20.88C16.49 21.72 16.55 22.59 16.65 23.49C15.63 23.45 14.48 23.43 13.2 23.43C11.92 23.41 10.78 23.4 9.78 23.4C9.28 23.4 8.64 23.4 7.86 23.4C7.08 23.4 6.24 23.41 5.34 23.43C4.44 23.43 3.53 23.44 2.61 23.46C1.69 23.46 0.82 23.47 0 23.49V22.89C0.64 22.85 1.12 22.77 1.44 22.65C1.76 22.53 1.97 22.29 2.07 21.93C2.19 21.57 2.25 21.03 2.25 20.31V5.43C2.25 4.69 2.19 4.15 2.07 3.81C1.97 3.45 1.75 3.21 1.41 3.09C1.09 2.95 0.62 2.87 0 2.85V2.25C0.82 2.27 1.69 2.29 2.61 2.31C3.53 2.31 4.44 2.32 5.34 2.34C6.24 2.34 7.08 2.34 7.86 2.34C8.64 2.34 9.28 2.34 9.78 2.34C10.7 2.34 11.74 2.34 12.9 2.34C14.08 2.32 15.13 2.29 16.05 2.25ZM11.37 12.51C11.37 12.51 11.37 12.61 11.37 12.81C11.37 13.01 11.37 13.11 11.37 13.11H6.12C6.12 13.11 6.12 13.01 6.12 12.81C6.12 12.61 6.12 12.51 6.12 12.51H11.37ZM12.24 8.55C12.16 9.69 12.12 10.56 12.12 11.16C12.14 11.76 12.15 12.31 12.15 12.81C12.15 13.31 12.16 13.86 12.18 14.46C12.2 15.06 12.25 15.93 12.33 17.07H11.64C11.54 16.37 11.35 15.72 11.07 15.12C10.81 14.52 10.43 14.04 9.93 13.68C9.43 13.3 8.78 13.11 7.98 13.11V12.51C8.58 12.51 9.09 12.39 9.51 12.15C9.93 11.89 10.27 11.56 10.53 11.16C10.81 10.74 11.03 10.3 11.19 9.84C11.35 9.38 11.47 8.95 11.55 8.55H12.24Z" fill="url(#paint0_linear_132_238)"/>
<path d="M26.4258 7.56C27.2058 7.56 27.9158 7.65 28.5558 7.83C29.2158 7.99 29.7558 8.2 30.1758 8.46C30.6958 8.78 31.0958 9.18 31.3758 9.66C31.6758 10.12 31.8258 10.66 31.8258 11.28C31.8258 11.98 31.6058 12.56 31.1658 13.02C30.7258 13.46 30.1558 13.68 29.4558 13.68C28.7558 13.68 28.1958 13.48 27.7758 13.08C27.3558 12.68 27.1458 12.14 27.1458 11.46C27.1458 10.82 27.3458 10.29 27.7458 9.87C28.1458 9.43 28.6058 9.14 29.1258 9C28.9658 8.8 28.7258 8.63 28.4058 8.49C28.0858 8.35 27.7258 8.28 27.3258 8.28C26.7058 8.28 26.1558 8.46 25.6758 8.82C25.2158 9.18 24.8258 9.68 24.5058 10.32C24.1858 10.96 23.9358 11.71 23.7558 12.57C23.5958 13.43 23.5158 14.37 23.5158 15.39C23.5158 16.93 23.7058 18.14 24.0858 19.02C24.4858 19.9 24.9858 20.52 25.5858 20.88C26.2058 21.24 26.8458 21.42 27.5058 21.42C27.8858 21.42 28.2958 21.36 28.7358 21.24C29.1958 21.12 29.6558 20.88 30.1158 20.52C30.5958 20.16 31.0358 19.65 31.4358 18.99L31.9458 19.17C31.7258 19.91 31.3658 20.65 30.8658 21.39C30.3658 22.13 29.7158 22.74 28.9158 23.22C28.1158 23.68 27.1358 23.91 25.9758 23.91C24.6758 23.91 23.4958 23.63 22.4358 23.07C21.3958 22.49 20.5558 21.61 19.9158 20.43C19.2958 19.23 18.9858 17.69 18.9858 15.81C18.9858 14.01 19.3058 12.5 19.9458 11.28C20.6058 10.04 21.4958 9.11 22.6158 8.49C23.7358 7.87 25.0058 7.56 26.4258 7.56Z" fill="url(#paint1_linear_132_238)"/>
<path d="M41.2486 7.56C42.7086 7.56 43.9886 7.83 45.0886 8.37C46.1886 8.91 47.0486 9.78 47.6686 10.98C48.2886 12.18 48.5986 13.77 48.5986 15.75C48.5986 17.73 48.2886 19.32 47.6686 20.52C47.0486 21.7 46.1886 22.56 45.0886 23.1C43.9886 23.64 42.7086 23.91 41.2486 23.91C39.8286 23.91 38.5586 23.64 37.4386 23.1C36.3386 22.56 35.4686 21.7 34.8286 20.52C34.2086 19.32 33.8986 17.73 33.8986 15.75C33.8986 13.77 34.2086 12.18 34.8286 10.98C35.4686 9.78 36.3386 8.91 37.4386 8.37C38.5586 7.83 39.8286 7.56 41.2486 7.56ZM41.2486 8.16C40.4486 8.16 39.7786 8.76 39.2386 9.96C38.6986 11.14 38.4286 13.07 38.4286 15.75C38.4286 18.43 38.6986 20.36 39.2386 21.54C39.7786 22.72 40.4486 23.31 41.2486 23.31C42.0686 23.31 42.7386 22.72 43.2586 21.54C43.7986 20.36 44.0686 18.43 44.0686 15.75C44.0686 13.07 43.7986 11.14 43.2586 9.96C42.7386 8.76 42.0686 8.16 41.2486 8.16Z" fill="url(#paint2_linear_132_238)"/>
<path d="M68.1326 2.25C68.0526 3.27 67.9926 4.25 67.9526 5.19C67.9326 6.13 67.9226 6.85 67.9226 7.35C67.9226 7.79 67.9326 8.21 67.9526 8.61C67.9726 9.01 67.9926 9.35 68.0126 9.63H67.3226C67.0026 7.95 66.5926 6.62 66.0926 5.64C65.6126 4.66 65.0326 3.97 64.3526 3.57C63.6726 3.15 62.8726 2.94 61.9526 2.94H61.2626V20.07C61.2626 20.87 61.3426 21.47 61.5026 21.87C61.6826 22.27 62.0026 22.54 62.4626 22.68C62.9226 22.8 63.5926 22.87 64.4726 22.89V23.49C63.8526 23.47 63.0226 23.45 61.9826 23.43C60.9626 23.41 59.8926 23.4 58.7726 23.4C57.6726 23.4 56.6326 23.41 55.6526 23.43C54.6726 23.45 53.8826 23.47 53.2826 23.49V22.89C54.1826 22.87 54.8626 22.8 55.3226 22.68C55.7826 22.54 56.0926 22.27 56.2526 21.87C56.4126 21.47 56.4926 20.87 56.4926 20.07V2.94H55.8326C54.9126 2.94 54.1126 3.15 53.4326 3.57C52.7526 3.97 52.1726 4.66 51.6926 5.64C51.2126 6.6 50.7926 7.93 50.4326 9.63H49.7426C49.7826 9.35 49.8026 9.01 49.8026 8.61C49.8226 8.21 49.8326 7.79 49.8326 7.35C49.8326 6.85 49.8126 6.13 49.7726 5.19C49.7526 4.25 49.7026 3.27 49.6226 2.25C50.5426 2.27 51.5426 2.29 52.6226 2.31C53.7226 2.33 54.8226 2.34 55.9226 2.34C57.0226 2.34 58.0126 2.34 58.8926 2.34C59.7926 2.34 60.7826 2.34 61.8626 2.34C62.9626 2.34 64.0626 2.33 65.1626 2.31C66.2626 2.29 67.2526 2.27 68.1326 2.25Z" fill="url(#paint3_linear_132_238)"/>
<path d="M79.9516 7.56C80.5916 7.56 81.1116 7.7 81.5116 7.98C81.9116 8.24 82.2016 8.58 82.3816 9C82.5816 9.42 82.6816 9.86 82.6816 10.32C82.6816 11.06 82.4616 11.67 82.0216 12.15C81.6016 12.61 81.0416 12.84 80.3416 12.84C79.6416 12.84 79.0916 12.67 78.6916 12.33C78.3116 11.97 78.1216 11.5 78.1216 10.92C78.1216 10.36 78.2416 9.9 78.4816 9.54C78.7416 9.16 79.0616 8.84 79.4416 8.58C79.1616 8.5 78.8816 8.51 78.6016 8.61C78.2216 8.67 77.8616 8.83 77.5216 9.09C77.1816 9.33 76.8916 9.64 76.6516 10.02C76.4116 10.38 76.2216 10.78 76.0816 11.22C75.9416 11.64 75.8716 12.05 75.8716 12.45V20.4C75.8716 21.36 76.1016 22.01 76.5616 22.35C77.0416 22.69 77.7516 22.86 78.6916 22.86V23.49C78.2316 23.47 77.5616 23.45 76.6816 23.43C75.8016 23.39 74.8816 23.37 73.9216 23.37C73.1216 23.37 72.3116 23.39 71.4916 23.43C70.6716 23.45 70.0516 23.47 69.6316 23.49V22.86C70.3316 22.86 70.8216 22.71 71.1016 22.41C71.4016 22.11 71.5516 21.54 71.5516 20.7V11.25C71.5516 10.35 71.4116 9.69 71.1316 9.27C70.8716 8.83 70.3716 8.61 69.6316 8.61V7.98C70.2716 8.04 70.8916 8.07 71.4916 8.07C72.3316 8.07 73.1116 8.04 73.8316 7.98C74.5716 7.9 75.2516 7.79 75.8716 7.65V10.44C76.1116 9.9 76.4316 9.41 76.8316 8.97C77.2316 8.53 77.6916 8.19 78.2116 7.95C78.7316 7.69 79.3116 7.56 79.9516 7.56Z" fill="url(#paint4_linear_132_238)"/>
<path d="M87.7755 23.7C86.8755 23.7 86.1255 23.53 85.5255 23.19C84.9255 22.85 84.4855 22.4 84.2055 21.84C83.9255 21.26 83.7855 20.63 83.7855 19.95C83.7855 19.09 83.9755 18.39 84.3555 17.85C84.7555 17.31 85.2655 16.87 85.8855 16.53C86.5055 16.19 87.1555 15.91 87.8355 15.69C88.5355 15.47 89.1955 15.26 89.8155 15.06C90.4555 14.84 90.9656 14.59 91.3456 14.31C91.7456 14.01 91.9455 13.63 91.9455 13.17V10.83C91.9455 10.31 91.8555 9.85 91.6755 9.45C91.5155 9.03 91.2555 8.71 90.8955 8.49C90.5555 8.27 90.1055 8.16 89.5455 8.16C89.1455 8.16 88.7456 8.22 88.3456 8.34C87.9456 8.44 87.6155 8.62 87.3555 8.88C87.9155 9.08 88.3455 9.39 88.6455 9.81C88.9655 10.21 89.1255 10.67 89.1255 11.19C89.1255 11.87 88.8855 12.41 88.4055 12.81C87.9455 13.21 87.3955 13.41 86.7555 13.41C86.0355 13.41 85.4855 13.19 85.1055 12.75C84.7455 12.29 84.5655 11.74 84.5655 11.1C84.5655 10.52 84.7055 10.04 84.9855 9.66C85.2855 9.28 85.6955 8.92 86.2155 8.58C86.7755 8.26 87.4455 8.01 88.2255 7.83C89.0255 7.65 89.8855 7.56 90.8055 7.56C91.7255 7.56 92.5555 7.66 93.2955 7.86C94.0355 8.04 94.6555 8.38 95.1555 8.88C95.6155 9.34 95.9155 9.91 96.0555 10.59C96.1955 11.25 96.2655 12.09 96.2655 13.11V21.27C96.2655 21.77 96.3156 22.12 96.4156 22.32C96.5156 22.5 96.6855 22.59 96.9255 22.59C97.1055 22.59 97.2755 22.54 97.4355 22.44C97.6155 22.34 97.8055 22.22 98.0055 22.08L98.3055 22.59C97.8855 22.95 97.3955 23.23 96.8355 23.43C96.2955 23.61 95.6855 23.7 95.0055 23.7C94.2655 23.7 93.6756 23.6 93.2355 23.4C92.7956 23.18 92.4755 22.89 92.2755 22.53C92.0955 22.17 92.0055 21.75 92.0055 21.27C91.5255 22.03 90.9455 22.63 90.2655 23.07C89.5855 23.49 88.7555 23.7 87.7755 23.7ZM89.9055 21.78C90.3055 21.78 90.6655 21.69 90.9855 21.51C91.3255 21.31 91.6455 20.99 91.9455 20.55V14.4C91.7655 14.7 91.5155 14.97 91.1955 15.21C90.8755 15.45 90.5355 15.7 90.1755 15.96C89.8155 16.2 89.4655 16.47 89.1255 16.77C88.8055 17.07 88.5456 17.44 88.3456 17.88C88.1456 18.32 88.0455 18.85 88.0455 19.47C88.0455 20.25 88.2155 20.83 88.5555 21.21C88.8955 21.59 89.3455 21.78 89.9055 21.78Z" fill="url(#paint5_linear_132_238)"/>
<path d="M113.36 7.98V8.58C112.98 8.68 112.62 8.92 112.28 9.3C111.94 9.66 111.61 10.28 111.29 11.16L106.91 23.55C106.59 23.53 106.26 23.52 105.92 23.52C105.6 23.52 105.28 23.53 104.96 23.55L99.6199 10.29C99.2999 9.51 98.9799 9.04 98.6599 8.88C98.3599 8.7 98.0999 8.61 97.8799 8.61V7.98C98.5199 8.02 99.1799 8.06 99.8599 8.1C100.56 8.12 101.32 8.13 102.14 8.13C102.76 8.13 103.41 8.12 104.09 8.1C104.79 8.06 105.44 8.02 106.04 7.98V8.61C105.62 8.61 105.24 8.63 104.9 8.67C104.58 8.71 104.36 8.84 104.24 9.06C104.12 9.28 104.14 9.67 104.3 10.23L107.81 19.53L107.51 19.95L109.88 13.38C110.26 12.3 110.42 11.42 110.36 10.74C110.3 10.04 110.08 9.52 109.7 9.18C109.32 8.82 108.81 8.62 108.17 8.58V7.98C108.47 8 108.79 8.02 109.13 8.04C109.49 8.04 109.83 8.05 110.15 8.07C110.49 8.07 110.79 8.07 111.05 8.07C111.45 8.07 111.87 8.06 112.31 8.04C112.75 8.02 113.1 8 113.36 7.98Z" fill="url(#paint6_linear_132_238)"/>
<path d="M121.405 7.56C123.165 7.56 124.545 8.08 125.545 9.12C126.545 10.16 127.045 11.86 127.045 14.22H117.175L117.115 13.65H123.265C123.285 12.67 123.225 11.77 123.085 10.95C122.945 10.11 122.725 9.44 122.425 8.94C122.125 8.44 121.725 8.19 121.225 8.19C120.525 8.19 119.925 8.63 119.425 9.51C118.945 10.39 118.655 11.85 118.555 13.89L118.645 14.07C118.625 14.31 118.605 14.56 118.585 14.82C118.585 15.08 118.585 15.35 118.585 15.63C118.585 17.01 118.775 18.13 119.155 18.99C119.555 19.85 120.055 20.48 120.655 20.88C121.255 21.26 121.865 21.45 122.485 21.45C122.905 21.45 123.335 21.39 123.775 21.27C124.235 21.13 124.695 20.89 125.155 20.55C125.615 20.19 126.045 19.69 126.445 19.05L126.985 19.23C126.745 19.99 126.365 20.73 125.845 21.45C125.325 22.17 124.665 22.76 123.865 23.22C123.065 23.68 122.105 23.91 120.985 23.91C119.625 23.91 118.425 23.62 117.385 23.04C116.345 22.46 115.525 21.58 114.925 20.4C114.345 19.22 114.055 17.72 114.055 15.9C114.055 14.04 114.365 12.49 114.985 11.25C115.625 10.01 116.495 9.09 117.595 8.49C118.715 7.87 119.985 7.56 121.405 7.56Z" fill="url(#paint7_linear_132_238)"/>
<path d="M134.902 0V20.7C134.902 21.54 135.042 22.11 135.322 22.41C135.622 22.71 136.122 22.86 136.822 22.86V23.49C136.442 23.47 135.872 23.45 135.112 23.43C134.352 23.39 133.582 23.37 132.802 23.37C132.022 23.37 131.232 23.39 130.432 23.43C129.652 23.45 129.062 23.47 128.662 23.49V22.86C129.362 22.86 129.852 22.71 130.132 22.41C130.432 22.11 130.582 21.54 130.582 20.7V3.6C130.582 2.7 130.442 2.04 130.162 1.62C129.902 1.18 129.402 0.96 128.662 0.96V0.330001C129.302 0.39 129.922 0.42 130.522 0.42C131.342 0.42 132.122 0.39 132.862 0.330001C133.602 0.250001 134.282 0.140001 134.902 0Z" fill="url(#paint8_linear_132_238)"/>
<path d="M138.398 2.25C138.918 2.27 139.598 2.29 140.438 2.31C141.278 2.33 142.118 2.34 142.958 2.34C143.918 2.34 144.848 2.33 145.748 2.31C146.648 2.29 147.288 2.28 147.668 2.28C150.148 2.28 151.998 2.72 153.218 3.6C154.458 4.48 155.078 5.61 155.078 6.99C155.078 7.69 154.868 8.4 154.448 9.12C154.028 9.84 153.378 10.48 152.498 11.04C151.618 11.6 150.478 12.01 149.078 12.27V12.33C150.958 12.47 152.448 12.81 153.548 13.35C154.648 13.89 155.438 14.54 155.918 15.3C156.398 16.06 156.638 16.85 156.638 17.67C156.638 18.93 156.308 19.99 155.648 20.85C154.988 21.71 154.038 22.37 152.798 22.83C151.558 23.27 150.078 23.49 148.358 23.49C147.878 23.49 147.188 23.48 146.288 23.46C145.388 23.42 144.298 23.4 143.018 23.4C142.138 23.4 141.278 23.41 140.438 23.43C139.598 23.43 138.918 23.45 138.398 23.49V22.89C139.038 22.85 139.518 22.77 139.838 22.65C140.158 22.53 140.368 22.29 140.468 21.93C140.588 21.57 140.648 21.03 140.648 20.31V5.43C140.648 4.69 140.588 4.15 140.468 3.81C140.368 3.45 140.148 3.21 139.808 3.09C139.488 2.95 139.018 2.87 138.398 2.85V2.25ZM147.278 2.85C146.498 2.85 145.988 3.02 145.748 3.36C145.528 3.7 145.418 4.39 145.418 5.43V20.31C145.418 21.01 145.468 21.54 145.568 21.9C145.688 22.26 145.888 22.5 146.168 22.62C146.468 22.74 146.908 22.8 147.488 22.8C148.928 22.8 149.978 22.35 150.638 21.45C151.318 20.53 151.658 19.23 151.658 17.55C151.658 16.01 151.268 14.82 150.488 13.98C149.728 13.14 148.458 12.72 146.678 12.72H144.128C144.128 12.72 144.128 12.64 144.128 12.48C144.128 12.3 144.128 12.21 144.128 12.21H146.708C147.648 12.21 148.368 11.99 148.868 11.55C149.368 11.09 149.718 10.49 149.918 9.75C150.118 8.99 150.218 8.18 150.218 7.32C150.218 5.84 149.988 4.73 149.528 3.99C149.068 3.23 148.318 2.85 147.278 2.85Z" fill="url(#paint9_linear_132_238)"/>
<path d="M164.17 0V20.7C164.17 21.54 164.31 22.11 164.59 22.41C164.89 22.71 165.39 22.86 166.09 22.86V23.49C165.71 23.47 165.14 23.45 164.38 23.43C163.62 23.39 162.85 23.37 162.07 23.37C161.29 23.37 160.5 23.39 159.7 23.43C158.92 23.45 158.33 23.47 157.93 23.49V22.86C158.63 22.86 159.12 22.71 159.4 22.41C159.7 22.11 159.85 21.54 159.85 20.7V3.6C159.85 2.7 159.71 2.04 159.43 1.62C159.17 1.18 158.67 0.96 157.93 0.96V0.330001C158.57 0.39 159.19 0.42 159.79 0.42C160.61 0.42 161.39 0.39 162.13 0.330001C162.87 0.250001 163.55 0.140001 164.17 0Z" fill="url(#paint10_linear_132_238)"/>
<path d="M174.813 7.56C176.273 7.56 177.553 7.83 178.653 8.37C179.753 8.91 180.613 9.78 181.233 10.98C181.853 12.18 182.163 13.77 182.163 15.75C182.163 17.73 181.853 19.32 181.233 20.52C180.613 21.7 179.753 22.56 178.653 23.1C177.553 23.64 176.273 23.91 174.813 23.91C173.393 23.91 172.123 23.64 171.003 23.1C169.903 22.56 169.033 21.7 168.393 20.52C167.773 19.32 167.463 17.73 167.463 15.75C167.463 13.77 167.773 12.18 168.393 10.98C169.033 9.78 169.903 8.91 171.003 8.37C172.123 7.83 173.393 7.56 174.813 7.56ZM174.813 8.16C174.013 8.16 173.343 8.76 172.803 9.96C172.263 11.14 171.993 13.07 171.993 15.75C171.993 18.43 172.263 20.36 172.803 21.54C173.343 22.72 174.013 23.31 174.813 23.31C175.633 23.31 176.303 22.72 176.823 21.54C177.363 20.36 177.633 18.43 177.633 15.75C177.633 13.07 177.363 11.14 176.823 9.96C176.303 8.76 175.633 8.16 174.813 8.16Z" fill="url(#paint11_linear_132_238)"/>
<path d="M189.856 29.13C188.616 29.13 187.506 29.02 186.526 28.8C185.566 28.6 184.806 28.28 184.246 27.84C183.706 27.42 183.436 26.9 183.436 26.28C183.436 25.66 183.716 25.1 184.276 24.6C184.836 24.12 185.666 23.74 186.766 23.46L187.036 23.94C186.656 24.24 186.376 24.56 186.196 24.9C186.036 25.26 185.956 25.63 185.956 26.01C185.956 26.85 186.336 27.49 187.096 27.93C187.876 28.39 188.926 28.62 190.246 28.62C191.146 28.62 191.946 28.5 192.646 28.26C193.366 28.02 193.926 27.66 194.326 27.18C194.746 26.7 194.956 26.11 194.956 25.41C194.956 24.81 194.736 24.3 194.296 23.88C193.856 23.48 192.976 23.28 191.656 23.28H189.796C188.976 23.28 188.256 23.19 187.636 23.01C187.036 22.83 186.566 22.55 186.226 22.17C185.886 21.77 185.716 21.27 185.716 20.67C185.716 19.83 186.046 19.09 186.706 18.45C187.366 17.81 188.346 17.21 189.646 16.65L189.946 16.89C189.566 17.13 189.206 17.39 188.866 17.67C188.546 17.93 188.386 18.27 188.386 18.69C188.386 19.33 188.786 19.65 189.586 19.65H192.856C193.956 19.65 194.936 19.78 195.796 20.04C196.676 20.3 197.366 20.73 197.866 21.33C198.386 21.91 198.646 22.67 198.646 23.61C198.646 24.59 198.326 25.5 197.686 26.34C197.066 27.18 196.106 27.85 194.806 28.35C193.506 28.87 191.856 29.13 189.856 29.13ZM190.156 17.1C189.016 17.1 187.996 16.93 187.096 16.59C186.196 16.25 185.486 15.73 184.966 15.03C184.446 14.33 184.186 13.43 184.186 12.33C184.186 11.23 184.446 10.33 184.966 9.63C185.486 8.91 186.196 8.39 187.096 8.07C187.996 7.73 189.016 7.56 190.156 7.56C191.296 7.56 192.316 7.73 193.216 8.07C194.116 8.39 194.826 8.91 195.346 9.63C195.866 10.33 196.126 11.23 196.126 12.33C196.126 13.43 195.866 14.33 195.346 15.03C194.826 15.73 194.116 16.25 193.216 16.59C192.316 16.93 191.296 17.1 190.156 17.1ZM190.156 16.56C190.696 16.56 191.116 16.26 191.416 15.66C191.716 15.04 191.866 13.93 191.866 12.33C191.866 10.73 191.716 9.63 191.416 9.03C191.116 8.41 190.696 8.1 190.156 8.1C189.636 8.1 189.216 8.41 188.896 9.03C188.596 9.63 188.446 10.73 188.446 12.33C188.446 13.93 188.596 15.04 188.896 15.66C189.216 16.26 189.636 16.56 190.156 16.56ZM194.836 10.14L194.236 9.93C194.536 9.15 195.016 8.5 195.676 7.98C196.356 7.46 197.086 7.2 197.866 7.2C198.506 7.2 198.986 7.38 199.306 7.74C199.646 8.08 199.816 8.53 199.816 9.09C199.816 9.69 199.656 10.14 199.336 10.44C199.016 10.72 198.656 10.86 198.256 10.86C197.916 10.86 197.596 10.74 197.296 10.5C197.016 10.26 196.856 9.9 196.816 9.42C196.776 8.92 196.946 8.28 197.326 7.5L197.536 7.68C196.776 7.96 196.206 8.29 195.826 8.67C195.446 9.03 195.116 9.52 194.836 10.14Z" fill="url(#paint12_linear_132_238)"/>
<defs>
<linearGradient id="paint0_linear_132_238" x1="-1.01953" y1="11.49" x2="199.98" y2="11.49" gradientUnits="userSpaceOnUse">
<stop stop-color="#0A786F"/>
<stop offset="0.9999" stop-color="#101828"/>
</linearGradient>
<linearGradient id="paint1_linear_132_238" x1="-1.01953" y1="11.49" x2="199.98" y2="11.49" gradientUnits="userSpaceOnUse">
<stop stop-color="#0A786F"/>
<stop offset="0.9999" stop-color="#101828"/>
</linearGradient>
<linearGradient id="paint2_linear_132_238" x1="-1.01953" y1="11.49" x2="199.98" y2="11.49" gradientUnits="userSpaceOnUse">
<stop stop-color="#0A786F"/>
<stop offset="0.9999" stop-color="#101828"/>
</linearGradient>
<linearGradient id="paint3_linear_132_238" x1="-1.01953" y1="11.49" x2="199.98" y2="11.49" gradientUnits="userSpaceOnUse">
<stop stop-color="#0A786F"/>
<stop offset="0.9999" stop-color="#101828"/>
</linearGradient>
<linearGradient id="paint4_linear_132_238" x1="-1.01953" y1="11.49" x2="199.98" y2="11.49" gradientUnits="userSpaceOnUse">
<stop stop-color="#0A786F"/>
<stop offset="0.9999" stop-color="#101828"/>
</linearGradient>
<linearGradient id="paint5_linear_132_238" x1="-1.01953" y1="11.49" x2="199.98" y2="11.49" gradientUnits="userSpaceOnUse">
<stop stop-color="#0A786F"/>
<stop offset="0.9999" stop-color="#101828"/>
</linearGradient>
<linearGradient id="paint6_linear_132_238" x1="-1.01953" y1="11.49" x2="199.98" y2="11.49" gradientUnits="userSpaceOnUse">
<stop stop-color="#0A786F"/>
<stop offset="0.9999" stop-color="#101828"/>
</linearGradient>
<linearGradient id="paint7_linear_132_238" x1="-1.01953" y1="11.49" x2="199.98" y2="11.49" gradientUnits="userSpaceOnUse">
<stop stop-color="#0A786F"/>
<stop offset="0.9999" stop-color="#101828"/>
</linearGradient>
<linearGradient id="paint8_linear_132_238" x1="-1.01953" y1="11.49" x2="199.98" y2="11.49" gradientUnits="userSpaceOnUse">
<stop stop-color="#0A786F"/>
<stop offset="0.9999" stop-color="#101828"/>
</linearGradient>
<linearGradient id="paint9_linear_132_238" x1="-1.01953" y1="11.49" x2="199.98" y2="11.49" gradientUnits="userSpaceOnUse">
<stop stop-color="#0A786F"/>
<stop offset="0.9999" stop-color="#101828"/>
</linearGradient>
<linearGradient id="paint10_linear_132_238" x1="-1.01953" y1="11.49" x2="199.98" y2="11.49" gradientUnits="userSpaceOnUse">
<stop stop-color="#0A786F"/>
<stop offset="0.9999" stop-color="#101828"/>
</linearGradient>
<linearGradient id="paint11_linear_132_238" x1="-1.01953" y1="11.49" x2="199.98" y2="11.49" gradientUnits="userSpaceOnUse">
<stop stop-color="#0A786F"/>
<stop offset="0.9999" stop-color="#101828"/>
</linearGradient>
<linearGradient id="paint12_linear_132_238" x1="-1.01953" y1="11.49" x2="199.98" y2="11.49" gradientUnits="userSpaceOnUse">
<stop stop-color="#0A786F"/>
<stop offset="0.9999" stop-color="#101828"/>
</linearGradient>
</defs>
</svg>
